<?xml version="1.0" encoding="utf-8"?>
<!-- Generator: Adobe Illustrator 16.0.0, SVG Export Plug-In . SVG Version: 6.00 Build 0)  -->
<!DOCTYPE svg PUBLIC "-//W3C//DTD SVG 1.1//EN" "http://www.w3.org/Graphics/SVG/1.1/DTD/svg11.dtd">
<svg version="1.1" id="Calque_1" xmlns="http://www.w3.org/2000/svg" xmlns:xlink="http://www.w3.org/1999/xlink" x="0px" y="0px"
	 width="400px" height="400px" viewBox="0 0 400 400" enable-background="new 0 0 400 400" xml:space="preserve">
<g>
	<polygon points="202.279,185.078 125.929,185.078 125.929,161.092 123.104,161.092 123.104,187.664 202.279,187.664 	"/>
	<rect x="236.352" y="185.078" width="13.799" height="2.585"/>
	<path d="M212.885,177.76l4.975-11.374l4.856,11.374H212.885z M217.938,160.097l-11.211,24.981l-1.168,2.585h3.029l1.127-2.585
		l2.062-4.732h12.01l2.003,4.732l1.099,2.585h3.022l-1.113-2.585L217.938,160.097z"/>
	<g>
		<path d="M68.075,220.311v-9.903h3.021c2.318,0,3.545,0.241,4.655,0.954c1.357,0.871,2.231,2.426,2.231,3.977
			c0,1.396-0.721,2.864-1.875,3.778c-1.113,0.882-2.218,1.194-4.57,1.194H68.075z M68.075,198.75h2.35
			c3.423,0,5.208,1.625,5.208,4.691c0,1.436-0.514,2.787-1.439,3.58c-0.898,0.84-1.899,1.114-3.89,1.114h-2.229V198.75z
			 M80.73,215.419c0-3.344-2.033-5.89-5.42-6.726c0.959-0.598,1.322-0.873,1.799-1.551c0.755-1.076,1.189-2.388,1.189-3.822
			c0-2.145-0.994-4.293-2.628-5.525c-1.388-1.073-3.218-1.55-6.008-1.55H65.29v26.573h6.843
			C77.305,222.818,80.73,219.838,80.73,215.419"/>
		<rect x="88.746" y="196.239" width="2.831" height="26.579"/>
		<path d="M111.587,219.114c-1.113,0.882-2.225,1.196-4.576,1.196h-3.461v-9.906h3.027c2.302,0,3.537,0.242,4.653,0.957
			c1.351,0.871,2.233,2.423,2.233,3.975C113.462,216.73,112.73,218.2,111.587,219.114 M103.549,198.75h2.345
			c3.433,0,5.209,1.625,5.209,4.691c0,1.436-0.51,2.787-1.436,3.58c-0.9,0.84-1.901,1.117-3.89,1.117h-2.228V198.75z
			 M110.79,208.695c0.958-0.6,1.308-0.872,1.791-1.553c0.754-1.076,1.197-2.39,1.197-3.822c0-2.145-1-4.293-2.623-5.525
			c-1.401-1.073-3.219-1.556-6.007-1.556h-4.377v26.579h6.836c5.171,0,8.592-2.98,8.592-7.398
			C116.198,212.07,114.169,209.529,110.79,208.695"/>
		<polygon points="124.229,196.245 124.229,222.818 134.693,222.818 134.693,220.234 127.051,220.234 127.051,196.245 		"/>
		<rect x="141.372" y="196.239" width="2.823" height="26.579"/>
		<path d="M176.809,209.573c0,6.163-4.924,11.174-11.06,11.174c-6.047,0-11.019-5.011-11.019-11.06
			c0-6.367,4.853-11.298,11.06-11.298C171.914,198.39,176.809,203.32,176.809,209.573 M151.912,209.652
			c0,7.556,6.16,13.688,13.837,13.688c7.597,0,13.848-6.213,13.848-13.767c0-7.562-6.251-13.771-13.807-13.771
			C158.11,195.844,151.912,202.011,151.912,209.652"/>
		<polygon points="194.218,222.818 194.218,198.83 200.668,198.83 200.668,196.239 184.956,196.239 184.956,198.83 191.406,198.83 
			191.406,222.818 		"/>
		<polygon points="224.061,207.145 210.335,207.145 210.335,196.244 207.504,196.244 207.504,222.818 210.335,222.818 
			210.335,209.729 224.061,209.729 224.061,222.818 226.88,222.818 226.88,196.244 224.061,196.244 		"/>
		<polygon points="236.062,222.818 249.868,222.818 249.868,220.232 238.889,220.232 238.889,209.529 249.546,209.529 
			249.546,206.943 238.889,206.943 238.889,198.83 249.868,198.83 249.868,196.239 236.062,196.239 		"/>
		<path d="M308.438,212.514c0,2.822-0.188,3.977-0.858,5.172c-1.092,1.875-3.317,3.062-5.78,3.062c-2.497,0-4.771-1.188-5.805-3.062
			c-0.752-1.311-0.908-2.35-0.908-5.172v-16.27h-2.832v17.186c0,2.82,0.516,4.614,1.749,6.25c1.785,2.307,4.661,3.657,7.771,3.657
			c3.089,0,5.952-1.351,7.713-3.657c1.271-1.716,1.78-3.467,1.78-6.25v-17.186h-2.825v16.27H308.438z"/>
		<polygon points="334.048,198.829 334.048,196.245 320.258,196.245 320.258,222.818 334.048,222.818 334.048,220.234 
			323.073,220.234 323.073,209.529 333.734,209.529 333.734,206.941 323.073,206.941 323.073,198.829 		"/>
		<path d="M276.052,219.732l-4.567-4.578l-1.834,1.835l3.729,3.726c-0.801,0.186-1.633,0.289-2.498,0.289
			c-6.187,0-11.214-5.027-11.214-11.212c0-6.183,5.028-11.218,11.214-11.218c6.187,0,11.212,5.035,11.212,11.218
			C282.093,214.109,279.646,217.854,276.052,219.732 M284.904,209.792c0-7.751-6.271-14.034-14.023-14.034
			s-14.037,6.283-14.037,14.034c0,7.747,6.284,14.03,14.037,14.03c1.674,0,3.271-0.312,4.764-0.848l3.772,3.771l1.829-1.839
			l-3.129-3.115C282.184,219.333,284.904,214.882,284.904,209.792"/>
	</g>
</g>
<g>
	<g>
		<path d="M152.685,17.112l0.569-12.368l12.364-0.564l-0.562,12.368L152.685,17.112z M154.691,6.183l-0.432,9.354l9.357-0.428
			l0.425-9.354L154.691,6.183z"/>
	</g>
	<g>
		<path d="M140.343,29.452l0.57-12.364l12.363-0.566l-0.564,12.368L140.343,29.452z M142.35,18.526l-0.431,9.353l9.354-0.426
			l0.427-9.355L142.35,18.526z"/>
	</g>
	<g>
		<path d="M128.003,41.796l0.566-12.367l12.364-0.562l-0.562,12.366L128.003,41.796z M130.006,30.868l-0.428,9.353l9.354-0.427
			l0.424-9.353L130.006,30.868z"/>
	</g>
	<g>
		<path d="M115.664,54.136l0.562-12.365l12.366-0.563l-0.565,12.364L115.664,54.136z M117.664,43.209l-0.426,9.352l9.353-0.427
			l0.428-9.352L117.664,43.209z"/>
	</g>
	<g>
		<path d="M103.32,66.479l0.564-12.363l12.364-0.567l-0.562,12.367L103.32,66.479z M105.322,55.552l-0.426,9.352l9.353-0.427
			l0.426-9.352L105.322,55.552z"/>
	</g>
	<g>
		<path d="M90.974,78.821l0.569-12.367l12.365-0.562l-0.563,12.363L90.974,78.821z M92.98,67.892l-0.43,9.354l9.355-0.427
			l0.429-9.352L92.98,67.892z"/>
	</g>
	<g>
		<path d="M78.636,91.163l0.563-12.367l12.368-0.563l-0.564,12.366L78.636,91.163z M80.637,80.233l-0.427,9.354l9.355-0.427
			l0.427-9.354L80.637,80.233z"/>
	</g>
	<g>
		<path d="M66.295,103.506l0.565-12.369l12.365-0.562l-0.562,12.364L66.295,103.506z M68.299,92.575l-0.43,9.355l9.355-0.429
			l0.427-9.352L68.299,92.575z"/>
	</g>
	<g>
		<path d="M53.95,115.848l0.568-12.366l12.366-0.567l-0.564,12.366L53.95,115.848z M55.955,104.919l-0.43,9.354l9.356-0.43
			l0.427-9.352L55.955,104.919z"/>
	</g>
	<g>
		<path d="M41.608,128.188l0.567-12.364l12.363-0.566l-0.563,12.365L41.608,128.188z M43.613,117.261l-0.429,9.352l9.355-0.429
			l0.425-9.351L43.613,117.261z"/>
	</g>
	<g>
		<path d="M29.265,140.531l0.57-12.365l12.365-0.567l-0.562,12.368L29.265,140.531z M31.272,129.603l-0.431,9.353l9.357-0.428
			l0.425-9.354L31.272,129.603z"/>
	</g>
	<g>
		<path d="M16.926,152.873l0.567-12.368l12.364-0.563l-0.562,12.367L16.926,152.873z M18.929,141.943l-0.427,9.355l9.355-0.429
			l0.426-9.353L18.929,141.943z"/>
	</g>
	<g>
		<path d="M4.585,165.214l0.565-12.365l12.366-0.564l-0.562,12.366L4.585,165.214z M6.588,154.286l-0.43,9.353l9.358-0.427
			l0.426-9.353L6.588,154.286z"/>
	</g>
	<g>
		<path d="M381.631,246.059l0.569-12.365l12.367-0.563l-0.565,12.365L381.631,246.059z M383.636,235.132l-0.429,9.353l9.357-0.428
			l0.427-9.353L383.636,235.132z"/>
	</g>
	<g>
		<path d="M369.293,258.4l0.564-12.365l12.363-0.567l-0.562,12.367L369.293,258.4z M371.295,247.475l-0.426,9.352l9.352-0.428
			l0.428-9.354L371.295,247.475z"/>
	</g>
	<g>
		<path d="M356.945,270.742l0.57-12.364l12.364-0.569l-0.562,12.368L356.945,270.742z M358.954,259.814l-0.433,9.353l9.359-0.427
			l0.425-9.355L358.954,259.814z"/>
	</g>
	<g>
		<path d="M344.609,283.084l0.562-12.367l12.366-0.562l-0.563,12.365L344.609,283.084z M346.612,272.154l-0.432,9.354l9.355-0.427
			l0.427-9.354L346.612,272.154z"/>
	</g>
	<g>
		<path d="M332.267,295.425l0.567-12.364l12.363-0.563l-0.562,12.364L332.267,295.425z M334.271,284.498l-0.43,9.352l9.354-0.427
			l0.426-9.353L334.271,284.498z"/>
	</g>
	<g>
		<path d="M319.927,307.768l0.562-12.365l12.364-0.563l-0.563,12.363L319.927,307.768z M321.928,296.839l-0.427,9.353l9.352-0.426
			l0.427-9.353L321.928,296.839z"/>
	</g>
	<g>
		<path d="M307.58,320.107l0.568-12.363l12.361-0.566l-0.562,12.363L307.58,320.107z M309.586,309.182l-0.43,9.352l9.354-0.428
			l0.428-9.352L309.586,309.182z"/>
	</g>
	<g>
		<path d="M295.239,332.452l0.567-12.367l12.365-0.565l-0.564,12.369L295.239,332.452z M297.243,321.521l-0.429,9.355l9.355-0.43
			l0.426-9.354L297.243,321.521z"/>
	</g>
	<g>
		<path d="M282.9,344.794l0.562-12.367l12.367-0.565l-0.563,12.369L282.9,344.794z M284.9,333.865l-0.428,9.354l9.355-0.428
			l0.427-9.354L284.9,333.865z"/>
	</g>
	<g>
		<path d="M270.555,357.136l0.568-12.366l12.365-0.567l-0.562,12.37L270.555,357.136z M272.561,346.207l-0.43,9.354l9.358-0.427
			l0.426-9.356L272.561,346.207z"/>
	</g>
	<g>
		<path d="M258.214,369.477l0.568-12.365l12.36-0.563l-0.563,12.365L258.214,369.477z M260.221,358.549l-0.432,9.354l9.354-0.428
			l0.428-9.354L260.221,358.549z"/>
	</g>
	<g>
		<path d="M245.872,381.818l0.567-12.364l12.362-0.567l-0.562,12.365L245.872,381.818z M247.878,370.893l-0.43,9.352l9.354-0.428
			l0.429-9.354L247.878,370.893z"/>
	</g>
	<g>
		<path d="M233.531,394.159l0.564-12.364l12.368-0.564l-0.565,12.364L233.531,394.159z M235.533,383.232l-0.426,9.352l9.353-0.426
			l0.431-9.354L235.533,383.232z"/>
	</g>
	<g>
		<path d="M394.567,165.215l-12.367-0.568l-0.569-12.362l12.371,0.563L394.567,165.215z M383.636,163.211l9.355,0.427l-0.427-9.352
			l-9.357-0.427L383.636,163.211z"/>
	</g>
	<g>
		<path d="M382.222,152.873l-12.363-0.565l-0.564-12.365l12.366,0.564L382.222,152.873z M371.295,150.87l9.354,0.429l-0.428-9.353
			l-9.352-0.427L371.295,150.87z"/>
	</g>
	<g>
		<path d="M369.881,140.531l-12.364-0.564l-0.57-12.365l12.373,0.564L369.881,140.531z M358.954,138.528l9.353,0.428l-0.425-9.352
			l-9.359-0.428L358.954,138.528z"/>
	</g>
	<g>
		<path d="M357.539,128.189l-12.366-0.565l-0.562-12.368l12.365,0.568L357.539,128.189z M346.612,126.186l9.352,0.428l-0.427-9.354
			l-9.355-0.428L346.612,126.186z"/>
	</g>
	<g>
		<path d="M345.197,115.848l-12.363-0.567l-0.567-12.366l12.369,0.567L345.197,115.848z M334.271,113.845l9.351,0.427l-0.426-9.353
			l-9.354-0.427L334.271,113.845z"/>
	</g>
	<g>
		<path d="M332.854,103.506l-12.364-0.567l-0.562-12.364l12.363,0.564L332.854,103.506z M321.928,101.501l9.352,0.429l-0.426-9.354
			l-9.353-0.427L321.928,101.501z"/>
	</g>
	<g>
		<path d="M320.511,91.164l-12.361-0.565l-0.568-12.367l12.368,0.565L320.511,91.164z M309.586,89.161l9.352,0.429l-0.427-9.354
			l-9.354-0.429L309.586,89.161z"/>
	</g>
	<g>
		<path d="M308.173,78.822l-12.364-0.565l-0.568-12.365l12.368,0.562L308.173,78.822z M297.243,76.818l9.354,0.428l-0.426-9.354
			l-9.354-0.426L297.243,76.818z"/>
	</g>
	<g>
		<path d="M295.83,66.479l-12.367-0.563L282.9,53.549l12.365,0.565L295.83,66.479z M284.9,64.478l9.354,0.426l-0.427-9.352
			l-9.355-0.427L284.9,64.478z"/>
	</g>
	<g>
		<path d="M283.489,54.138l-12.366-0.563l-0.568-12.367l12.371,0.565L283.489,54.138z M272.561,52.137l9.354,0.426l-0.426-9.352
			l-9.358-0.429L272.561,52.137z"/>
	</g>
	<g>
		<path d="M271.145,41.796l-12.361-0.563l-0.568-12.367l12.365,0.564L271.145,41.796z M260.221,39.794l9.35,0.427l-0.428-9.353
			l-9.354-0.427L260.221,39.794z"/>
	</g>
	<g>
		<path d="M258.803,29.453l-12.361-0.562l-0.568-12.369l12.369,0.568L258.803,29.453z M247.878,27.453l9.353,0.426l-0.429-9.353
			l-9.354-0.427L247.878,27.453z"/>
	</g>
	<g>
		<path d="M246.465,17.112l-12.369-0.564L233.531,4.18l12.367,0.564L246.465,17.112z M235.533,15.11l9.355,0.427l-0.43-9.354
			l-9.354-0.428L235.533,15.11z"/>
	</g>
	<g>
		<path d="M165.617,394.159l-12.364-0.563l-0.569-12.365l12.371,0.564L165.617,394.159z M154.691,392.158l9.351,0.426l-0.425-9.352
			l-9.357-0.428L154.691,392.158z"/>
	</g>
	<g>
		<path d="M153.276,381.818l-12.363-0.566l-0.57-12.363l12.369,0.565L153.276,381.818z M142.35,379.816l9.351,0.427l-0.427-9.351
			l-9.354-0.429L142.35,379.816z"/>
	</g>
	<g>
		<path d="M140.934,369.477l-12.364-0.563l-0.566-12.365l12.368,0.563L140.934,369.477z M130.006,367.475l9.351,0.428l-0.424-9.354
			l-9.354-0.429L130.006,367.475z"/>
	</g>
	<g>
		<path d="M128.592,357.136l-12.366-0.565l-0.562-12.362l12.363,0.562L128.592,357.136z M117.664,355.131l9.355,0.43l-0.428-9.354
			l-9.353-0.428L117.664,355.131z"/>
	</g>
	<g>
		<path d="M116.249,344.794l-12.364-0.567l-0.564-12.365l12.367,0.566L116.249,344.794z M105.322,342.789l9.354,0.428l-0.426-9.351
			l-9.353-0.431L105.322,342.789z"/>
	</g>
	<g>
		<path d="M103.908,332.452l-12.365-0.565l-0.569-12.367l12.371,0.565L103.908,332.452z M92.98,330.448l9.354,0.43l-0.429-9.354
			l-9.355-0.429L92.98,330.448z"/>
	</g>
	<g>
		<path d="M91.566,320.107l-12.368-0.566l-0.563-12.365l12.367,0.568L91.566,320.107z M80.637,318.105l9.355,0.428l-0.427-9.354
			l-9.355-0.43L80.637,318.105z"/>
	</g>
	<g>
		<path d="M79.225,307.768l-12.365-0.565l-0.565-12.367l12.368,0.567L79.225,307.768z M68.299,305.766l9.353,0.426l-0.427-9.353
			l-9.355-0.429L68.299,305.766z"/>
	</g>
	<g>
		<path d="M66.884,295.425l-12.366-0.563l-0.568-12.365l12.37,0.562L66.884,295.425z M55.955,293.423l9.354,0.427l-0.427-9.353
			l-9.356-0.427L55.955,293.423z"/>
	</g>
	<g>
		<path d="M54.539,283.084l-12.363-0.562l-0.567-12.369l12.368,0.564L54.539,283.084z M43.613,281.082l9.352,0.427l-0.425-9.354
			l-9.355-0.428L43.613,281.082z"/>
	</g>
	<g>
		<path d="M42.201,270.742l-12.365-0.564l-0.57-12.367l12.373,0.563L42.201,270.742z M31.272,268.74l9.352,0.427l-0.425-9.354
			l-9.357-0.428L31.272,268.74z"/>
	</g>
	<g>
		<path d="M29.857,258.4l-12.364-0.565l-0.567-12.367l12.369,0.565L29.857,258.4z M18.929,256.396l9.355,0.429l-0.426-9.354
			l-9.355-0.428L18.929,256.396z"/>
	</g>
	<g>
		<path d="M17.516,246.057L5.15,245.494l-0.565-12.365l12.369,0.562L17.516,246.057z M6.588,244.057l9.354,0.426l-0.426-9.354
			l-9.358-0.427L6.588,244.057z"/>
	</g>
</g>
</svg>
